<svg xmlns="http://www.w3.org/2000/svg" width="188" height="32" viewBox="0 0 709 136" fill="#0e9f6e">
    <path d="M662.9 45.5c-4.9-4.5-11.6-6.8-20.3-6.8 -9.9 0-19.3 2.3-28.4 6.8v29.1c2.2-0.8 4.7-1.2 7.2-1.2 2.8 0 5.3 0.5 7.7 1.4V53c4-0.7 7.9-1.1 11.5-1.1 3.2 0 5.9 0.3 7.9 0.9 2.1 0.6 3.6 1.5 4.5 2.7 0.9 1.2 1.5 2.4 1.8 3.5 0.3 1.1 0.5 2.5 0.5 4.2v38.5h14.9V64.4C670.2 56.3 667.8 50 662.9 45.5z"/>
    <path d="M70 40.3l13.4 46.1 14-46.1h16.8l-21.4 61.7H75.2l-6.3-18.2L63.4 63.3l-5.5 20.5 -6.3 18.2H33.9L12.4 40.3h16.9l14 46.1 13.3-46.1H70z"/>
    <path d="M200.6 40.4l1.1 7.1c4.7-7.6 11.1-8.7 17.3-8.7 6.3 0 12.4 2.5 15.8 5.8l-6.8 13.2c-3.1-2.6-6-4-10.9-4 -8 0-15.3 4.2-15.3 15.5v32.3h-15.2V40.4H200.6z"/>
    <path d="M372.8 23.1c0 11.8-17.9 11.8-17.9 0C354.9 11.3 372.8 11.3 372.8 23.1zM356.3 40.1v61.5h15.2V40.1H356.3z"/>
    <path d="M400 40.1v61.6c0 15.2-6.6 25-20.4 25 -4.5 0-9.2-1.2-13.5-4.1l5.5-11.8c2.6 1.2 5.1 1.9 7.3 1.7 5-0.2 6.1-4.1 6.1-10.8V40.1H400zM383.6 23c0 11.8 17.9 11.8 17.9 0C401.5 11.2 383.6 11.2 383.6 23z"/>
    <path d="M545.6 101.7V45.5c9.1-4.5 18.6-6.8 28.4-6.8 8.6 0 15.4 2.3 20.3 6.8 4.9 4.5 7.3 10.8 7.3 19v37.2H586.7V63.2c0-1.7-0.1-3-0.4-4.2 -0.3-1.1-0.9-2.3-1.8-3.5 -0.9-1.2-2.4-2.1-4.5-2.7 -2.1-0.6-4.7-0.9-7.9-0.9 -3.6 0-7.5 0.4-11.5 1.1v48.7H545.6z"/>
    <polygon points="242.3 101.7 257.4 101.7 257.4 74 281.4 101.7 299.7 101.7 299.7 100.6 271.2 69.3 296.8 40.7 296.8 39.8 278.7 39.8 257.4 65 257.4 18.1 242.3 18.1 "/>
    <path d="M449 39.5c-3.5-0.6-6.9-1-10.2-1 -9.2 0-16.2 2.7-21 8 -4.9 5.3-7.3 12.9-7.3 22.9 0 5.5 0.7 10.3 2.1 14.5 1.4 4.2 3.1 7.4 5.1 9.5 2 2.2 4.4 3.9 7.1 5.3 2.7 1.4 5.1 2.2 7.1 2.5 2 0.3 4 0.5 6.1 0.5 8.8 0 15.3-2 19.5-6.1 4.3-4.1 6.4-8.9 6.4-14.5V18.1h-14.7V39.5zM449 82.4c0 4.4-3.7 6.6-11.2 6.6 -4.7 0-8-1.6-9.8-4.8 -1.9-3.2-2.8-8.4-2.8-15.6 0-6.9 1.2-11.7 3.6-14.5 2.4-2.7 5.9-4.1 10.5-4.1 3.6 0 6.8 0.4 9.7 1V82.4z"/>
    <path d="M314.2 39.8h-10.3v12.7h10.3v28.9c0 6.3 1.7 11.3 5.2 14.9 3.5 3.6 8.3 5.4 14.3 5.4 0.1 0 0.2 0 0.3 0 3.4 0 6.5-0.6 9.4-1.8V87.7c-2 0.9-4.4 1.3-7 1.3 -2.8 0-4.7-0.5-5.8-1.4 -1.1-0.9-1.7-2.7-1.7-5.3V52.5h14.5v-12.6h-14.5V18.1h-14.7V39.8z"/>
    <path d="M630.4 93.8c0 11.8-17.9 11.8-17.9 0C612.5 82 630.4 82 630.4 93.8z"/>
    <path d="M517.8 71.7h-10.2c-0.6-1.8-2.3-3.1-4.4-3.1 -0.2 0-0.3 0-0.5 0l-4.7-7.7c-0.6-1-2-1.4-3-0.7 -1 0.6-1.4 2-0.7 3l4.8 7.9c-0.3 0.6-0.5 1.4-0.5 2.2 0 2.6 2.1 4.6 4.6 4.6 2 0 3.6-1.2 4.3-2.9h10.2c0.9 0 1.6-0.7 1.6-1.6C519.5 72.5 518.7 71.7 517.8 71.7z"/>
    <path d="M537 71.1c0 0 0-0.1 0-0.1 0-17.9-14.6-32.4-32.5-32.4 -17.9 0-32.4 14.6-32.4 32.4 0 17.9 14.6 32.4 32.4 32.4 10.2 0 19.3-4.8 25.3-12.2l-9.9-9.9c-3.3 4.9-9 8.2-15.4 8.2 -10.2 0-18.5-8.3-18.5-18.5 0-10.2 8.3-18.5 18.5-18.5 10.2 0 18.5 8.3 18.5 18.5 0 0 0 0.1 0 0.1H537z"/>
    <path d="M161.6 71.7h-10.2c-0.6-1.8-2.3-3.1-4.4-3.1 -0.2 0-0.3 0-0.5 0l-4.7-7.7c-0.6-1-2-1.4-3-0.7 -1 0.6-1.4 2-0.7 3l4.8 7.9c-0.3 0.7-0.5 1.4-0.5 2.2 0 2.6 2.1 4.6 4.6 4.6 1.9 0 3.6-1.2 4.3-2.9h10.2c0.9 0 1.6-0.7 1.6-1.6C163.2 72.5 162.5 71.7 161.6 71.7z"/>
    <path d="M180.8 71.1c0 0 0-0.1 0-0.1 0-17.9-14.6-32.4-32.4-32.4 -17.9 0-32.4 14.6-32.4 32.4 0 17.9 14.6 32.4 32.4 32.4 10.2 0 19.3-4.8 25.3-12.2l-9.9-9.9c-3.3 4.9-9 8.2-15.4 8.2 -10.2 0-18.5-8.3-18.5-18.5 0-10.2 8.3-18.5 18.5-18.5 10.2 0 18.5 8.3 18.5 18.5 0 0 0 0.1 0 0.1H180.8z"/>
    <rect x="683" y="18.1" width="15" height="83.6"/>
</svg>
